<?xml version="1.0" encoding="UTF-8" standalone="no"?><!DOCTYPE svg PUBLIC "-//W3C//DTD SVG 1.1//EN" "http://www.w3.org/Graphics/SVG/1.1/DTD/svg11.dtd"><svg width="100%" height="100%" viewBox="0 0 16 16" version="1.1" xmlns="http://www.w3.org/2000/svg" xmlns:xlink="http://www.w3.org/1999/xlink" xml:space="preserve" xmlns:serif="http://www.serif.com/" style="fill-rule:evenodd;clip-rule:evenodd;stroke-linejoin:round;stroke-miterlimit:2;"><g><path d="M8.623,12.831l4.935,-0c0,-0 1.383,-2.312 2.178,-3.642c0.339,-0.567 0.352,-1.27 0.035,-1.85c-1.062,-1.942 -3.411,-6.235 -3.411,-6.235l-4.982,0c-0,0 2.368,4.3 3.439,6.244c0.319,0.579 0.307,1.284 -0.031,1.852c-0.791,1.328 -2.163,3.631 -2.163,3.631Z" style="fill:#355bfc;"/><path d="M7.377,3.169l-4.935,0c-0,0 -1.383,2.312 -2.178,3.642c-0.339,0.567 -0.352,1.27 -0.035,1.85c1.062,1.942 3.411,6.235 3.411,6.235l4.982,-0c0,-0 -2.368,-4.3 -3.439,-6.244c-0.319,-0.579 -0.307,-1.284 0.031,-1.852c0.791,-1.328 2.163,-3.631 2.163,-3.631Z" style="fill:#355bfc;"/></g></svg>