<?xml version="1.0" encoding="UTF-8" standalone="no"?><!DOCTYPE svg PUBLIC "-//W3C//DTD SVG 1.1//EN" "http://www.w3.org/Graphics/SVG/1.1/DTD/svg11.dtd"><svg width="100%" height="100%" viewBox="0 0 1250 38" version="1.1" xmlns="http://www.w3.org/2000/svg" xmlns:xlink="http://www.w3.org/1999/xlink" xml:space="preserve" xmlns:serif="http://www.serif.com/" style="fill-rule:evenodd;clip-rule:evenodd;stroke-linejoin:round;stroke-miterlimit:2;"><path d="M826.296,16.142c-229.476,0.308 -525.059,7.678 -817.396,21.2c-1.654,0.077 -3.27,-0.507 -4.493,-1.624c-1.223,-1.116 -1.952,-2.673 -2.026,-4.327c-0.053,-1.175 -0.108,-2.404 -0.161,-3.581c-0.156,-3.477 2.534,-6.424 6.011,-6.585c292.513,-13.529 588.308,-20.906 818.044,-21.215c115.679,-0.155 214.687,1.481 288.125,5.034c36.708,1.776 67.14,4.036 90.119,6.809c11.481,1.386 21.22,2.914 29.012,4.602c4.327,0.939 8.279,1.972 11.691,3.149c1.726,0.655 3.084,2.025 3.724,3.756c0.64,1.732 0.499,3.655 -0.387,5.275c0.006,0.06 -0.018,0.104 -0.042,0.148c-2.368,4.326 -7.442,6.402 -12.163,4.976c-1.757,-0.522 -3.793,-1.021 -6.117,-1.526c-7.137,-1.547 -16.354,-3.005 -27.582,-4.36c-22.445,-2.709 -52.46,-4.947 -89.005,-6.716c-73.068,-3.535 -171.786,-5.171 -287.354,-5.015Z" style="fill:#355bfc;"/></svg>